<svg xmlns="http://www.w3.org/2000/svg" viewBox="0 0 128 128">
  <defs>
    <linearGradient id="bgGradient" x1="0%" y1="0%" x2="100%" y2="100%">
      <stop offset="0%" style="stop-color:#6366f1;stop-opacity:1" />
      <stop offset="100%" style="stop-color:#4f46e5;stop-opacity:1" />
    </linearGradient>
    <linearGradient id="nodeGradient" x1="0%" y1="0%" x2="100%" y2="100%">
      <stop offset="0%" style="stop-color:#818cf8;stop-opacity:1" />
      <stop offset="100%" style="stop-color:#6366f1;stop-opacity:1" />
    </linearGradient>
  </defs>

  <!-- Background circle -->
  <circle cx="64" cy="64" r="60" fill="url(#bgGradient)"/>

  <!-- Top node (CEO) -->
  <circle cx="64" cy="32" r="12" fill="white" opacity="0.95"/>
  <circle cx="64" cy="32" r="8" fill="url(#nodeGradient)"/>

  <!-- Connecting lines -->
  <line x1="64" y1="44" x2="64" y2="52" stroke="white" stroke-width="2" opacity="0.7"/>
  <line x1="32" y1="52" x2="96" y2="52" stroke="white" stroke-width="2" opacity="0.7"/>
  <line x1="32" y1="52" x2="32" y2="60" stroke="white" stroke-width="2" opacity="0.7"/>
  <line x1="64" y1="52" x2="64" y2="60" stroke="white" stroke-width="2" opacity="0.7"/>
  <line x1="96" y1="52" x2="96" y2="60" stroke="white" stroke-width="2" opacity="0.7"/>

  <!-- Middle level nodes -->
  <circle cx="32" cy="72" r="10" fill="white" opacity="0.9"/>
  <circle cx="32" cy="72" r="6" fill="url(#nodeGradient)"/>

  <circle cx="64" cy="72" r="10" fill="white" opacity="0.9"/>
  <circle cx="64" cy="72" r="6" fill="url(#nodeGradient)"/>

  <circle cx="96" cy="72" r="10" fill="white" opacity="0.9"/>
  <circle cx="96" cy="72" r="6" fill="url(#nodeGradient)"/>

  <!-- Bottom level connections -->
  <line x1="32" y1="82" x2="32" y2="88" stroke="white" stroke-width="2" opacity="0.7"/>
  <line x1="64" y1="82" x2="64" y2="88" stroke="white" stroke-width="2" opacity="0.7"/>

  <!-- Bottom level nodes -->
  <circle cx="32" cy="96" r="8" fill="white" opacity="0.85"/>
  <circle cx="32" cy="96" r="5" fill="url(#nodeGradient)"/>

  <circle cx="64" cy="96" r="8" fill="white" opacity="0.85"/>
  <circle cx="64" cy="96" r="5" fill="url(#nodeGradient)"/>
</svg>